<svg width="72" height="72" viewBox="0 0 72 72" fill="none" xmlns="http://www.w3.org/2000/svg">
<circle cx="36" cy="36" r="36" fill="#1D6AFF"/>
<path d="M27.8146 47.6768C27.6256 47.8413 27.3935 47.9483 27.1457 47.9855C26.8979 48.0226 26.6446 47.9883 26.4157 47.8865C26.1867 47.7847 25.9915 47.6198 25.853 47.4109C25.7145 47.2021 25.6385 46.9581 25.6338 46.7076V43.7537C24.9353 43.7537 24.2654 43.4763 23.7714 42.9823C23.2775 42.4884 23 41.8185 23 41.1199V31.9015C23 31.203 23.2775 30.533 23.7714 30.0391C24.2654 29.5452 24.9353 29.2677 25.6338 29.2677H40.1199C40.8185 29.2677 41.4884 29.5452 41.9823 30.0391C42.4763 30.533 42.7537 31.203 42.7537 31.9015V41.1199C42.7537 41.8185 42.4763 42.4884 41.9823 42.9823C41.4884 43.4763 40.8185 43.7537 40.1199 43.7537H33.5393L27.8146 47.6768ZM28.9261 43.6036C29.0461 43.6029 29.164 43.5717 29.2685 43.5128L32.3699 41.3556C32.5906 41.2022 32.853 41.1199 33.1218 41.1199H38.803C39.1523 41.1199 39.4872 40.9812 39.7342 40.7342C39.9812 40.4872 40.1199 40.1523 40.1199 39.803V33.2184C40.1199 32.8691 39.9812 32.5342 39.7342 32.2872C39.4872 32.0402 39.1523 31.9015 38.803 31.9015H26.9507C26.6015 31.9015 26.2665 32.0402 26.0195 32.2872C25.7726 32.5342 25.6338 32.8691 25.6338 33.2184V39.803C25.6338 40.5141 26.1988 41.0962 26.9507 41.1199C27.4907 41.141 27.8818 41.2292 28.0622 41.4175C28.2308 41.594 28.24 41.8916 28.2677 42.4579C28.2716 42.5409 28.2716 42.691 28.2677 42.9452C28.2677 43.1198 28.337 43.2873 28.4605 43.4108C28.584 43.5342 28.7515 43.6036 28.9261 43.6036ZM44.0707 37.1902C44.0665 37.3526 44.0665 37.5151 44.0707 37.6775V37.1902C44.097 36.624 44.1075 36.3263 44.2761 36.1499C44.4565 35.9616 44.8476 35.8733 45.3876 35.8522C46.1395 35.8285 46.7045 35.2465 46.7045 34.5353V27.9507C46.7045 27.6015 46.5658 27.2665 46.3188 27.0195C46.0718 26.7726 45.7368 26.6338 45.3876 26.6338H33.5353C33.1861 26.6338 32.8511 26.7726 32.6041 27.0195C32.3572 27.2665 32.2184 27.6015 32.2184 27.9507H29.5846V26.6338C29.5846 25.9353 29.8621 25.2654 30.356 24.7714C30.85 24.2775 31.5199 24 32.2184 24H46.7045C47.403 24 48.073 24.2775 48.5669 24.7714C49.0608 25.2654 49.3383 25.9353 49.3383 26.6338V35.8522C49.3383 36.5508 49.0608 37.2207 48.5669 37.7146C48.073 38.2086 47.403 38.4861 46.7045 38.4861V41.4399C46.6998 41.6905 46.6238 41.9344 46.4853 42.1433C46.3468 42.3521 46.1516 42.5171 45.9227 42.6188C45.6937 42.7206 45.4404 42.7549 45.1926 42.7178C44.9448 42.6807 44.7128 42.5736 44.5237 42.4092L44.0707 42.0984V37.1916V37.1902Z" fill="white"/>
</svg>
