<svg width="72" height="72" viewBox="0 0 72 72" fill="none" xmlns="http://www.w3.org/2000/svg">
<circle cx="36" cy="36" r="36" fill="#1D6AFF"/>
<path d="M44.484 27.516L42.792 29.208C44.5903 31.0109 45.6002 33.4535 45.6 36C45.6 41.304 41.304 45.6 36 45.6C30.696 45.6 26.4 41.304 26.4 36C26.4 31.104 30.06 27.072 34.8 26.484V28.908C31.392 29.484 28.8 32.436 28.8 36C28.8 39.972 32.028 43.2 36 43.2C39.972 43.2 43.2 39.972 43.2 36C43.2 34.008 42.396 32.208 41.088 30.912L39.396 32.604C40.26 33.48 40.8 34.68 40.8 36C40.8 38.652 38.652 40.8 36 40.8C33.348 40.8 31.2 38.652 31.2 36C31.2 33.768 32.736 31.908 34.8 31.368V33.936C34.08 34.356 33.6 35.112 33.6 36C33.6 37.32 34.68 38.4 36 38.4C37.32 38.4 38.4 37.32 38.4 36C38.4 35.112 37.92 34.344 37.2 33.936V24H36C29.376 24 24 29.376 24 36C24 42.624 29.376 48 36 48C42.624 48 48 42.624 48 36C48 32.688 46.656 29.688 44.484 27.516Z" fill="white"/>
</svg>
