<svg width="23" height="19" viewBox="0 0 23 19" fill="none" xmlns="http://www.w3.org/2000/svg">
<path d="M22.5937 0.917431H1.75322C1.30986 0.917431 0.95166 1.27421 0.95166 1.71582V17.6836C0.95166 18.1252 1.30986 18.482 1.75322 18.482H22.5937C23.037 18.482 23.3952 18.1252 23.3952 17.6836V1.71582C23.3952 1.27421 23.037 0.917431 22.5937 0.917431ZM21.5917 3.68185V16.6856H2.75516V3.68185L2.06382 3.14543L3.04823 1.88548L4.12031 2.7163H20.2291L21.3011 1.88548L22.2856 3.14543L21.5917 3.68185ZM20.2291 2.7138L12.1734 8.9512L4.1178 2.7138L3.04572 1.88298L2.06131 3.14294L2.75265 3.67935L11.3093 10.306C11.5553 10.4964 11.8581 10.5997 12.1697 10.5997C12.4813 10.5997 12.784 10.4964 13.0301 10.306L21.5917 3.68185L22.2831 3.14543L21.2986 1.88548L20.2291 2.7138Z" fill="#333CC1"/>
</svg>
