<svg width="203" height="60" viewBox="0 0 203 60" fill="none" xmlns="http://www.w3.org/2000/svg">
<rect width="203" height="60" rx="5" fill="black"/>
<path d="M66.802 12.2C68.146 12.2 69.266 12.6713 70.162 13.614C71.0673 14.5567 71.52 15.7187 71.52 17.1C71.52 18.4813 71.0673 19.6433 70.162 20.586C69.266 21.5287 68.146 22 66.802 22H62.91V12.2H66.802ZM66.802 20.152C67.6513 20.152 68.342 19.872 68.874 19.312C69.406 18.7427 69.672 18.0053 69.672 17.1C69.672 16.1947 69.406 15.462 68.874 14.902C68.342 14.3327 67.6513 14.048 66.802 14.048H64.842V20.152H66.802ZM78.4905 21.132C77.7718 21.8413 76.8945 22.196 75.8585 22.196C74.8225 22.196 73.9451 21.8413 73.2265 21.132C72.5171 20.4133 72.1625 19.536 72.1625 18.5C72.1625 17.464 72.5171 16.5913 73.2265 15.882C73.9451 15.1633 74.8225 14.804 75.8585 14.804C76.8945 14.804 77.7718 15.1633 78.4905 15.882C79.2091 16.5913 79.5685 17.464 79.5685 18.5C79.5685 19.536 79.2091 20.4133 78.4905 21.132ZM74.5005 19.886C74.8645 20.25 75.3171 20.432 75.8585 20.432C76.3998 20.432 76.8525 20.25 77.2165 19.886C77.5805 19.522 77.7625 19.06 77.7625 18.5C77.7625 17.94 77.5805 17.478 77.2165 17.114C76.8525 16.75 76.3998 16.568 75.8585 16.568C75.3171 16.568 74.8645 16.75 74.5005 17.114C74.1458 17.478 73.9685 17.94 73.9685 18.5C73.9685 19.06 74.1458 19.522 74.5005 19.886ZM88.1675 15H90.0855L87.8595 22H86.1375L84.8495 17.758L83.5615 22H81.8395L79.6135 15H81.5315L82.7215 19.298L83.9955 15H85.7035L86.9775 19.312L88.1675 15ZM94.671 14.804C95.4363 14.804 96.0663 15.0607 96.561 15.574C97.065 16.0873 97.317 16.7967 97.317 17.702V22H95.511V17.926C95.511 17.4593 95.385 17.1047 95.133 16.862C94.881 16.61 94.545 16.484 94.125 16.484C93.6583 16.484 93.285 16.6287 93.005 16.918C92.725 17.2073 92.585 17.6413 92.585 18.22V22H90.779V15H92.585V15.784C93.0236 15.1307 93.719 14.804 94.671 14.804ZM98.579 22V11.78H100.385V22H98.579ZM107.722 21.132C107.003 21.8413 106.126 22.196 105.09 22.196C104.054 22.196 103.177 21.8413 102.458 21.132C101.749 20.4133 101.394 19.536 101.394 18.5C101.394 17.464 101.749 16.5913 102.458 15.882C103.177 15.1633 104.054 14.804 105.09 14.804C106.126 14.804 107.003 15.1633 107.722 15.882C108.441 16.5913 108.8 17.464 108.8 18.5C108.8 19.536 108.441 20.4133 107.722 21.132ZM103.732 19.886C104.096 20.25 104.549 20.432 105.09 20.432C105.631 20.432 106.084 20.25 106.448 19.886C106.812 19.522 106.994 19.06 106.994 18.5C106.994 17.94 106.812 17.478 106.448 17.114C106.084 16.75 105.631 16.568 105.09 16.568C104.549 16.568 104.096 16.75 103.732 17.114C103.377 17.478 103.2 17.94 103.2 18.5C103.2 19.06 103.377 19.522 103.732 19.886ZM115.111 15H116.917V22H115.111V21.174C114.569 21.8553 113.809 22.196 112.829 22.196C111.895 22.196 111.093 21.8413 110.421 21.132C109.758 20.4133 109.427 19.536 109.427 18.5C109.427 17.464 109.758 16.5913 110.421 15.882C111.093 15.1633 111.895 14.804 112.829 14.804C113.809 14.804 114.569 15.1447 115.111 15.826V15ZM111.779 19.928C112.143 20.292 112.605 20.474 113.165 20.474C113.725 20.474 114.187 20.292 114.551 19.928C114.924 19.5547 115.111 19.0787 115.111 18.5C115.111 17.9213 114.924 17.45 114.551 17.086C114.187 16.7127 113.725 16.526 113.165 16.526C112.605 16.526 112.143 16.7127 111.779 17.086C111.415 17.45 111.233 17.9213 111.233 18.5C111.233 19.0787 111.415 19.5547 111.779 19.928ZM123.58 12.2H125.386V22H123.58V21.174C123.048 21.8553 122.292 22.196 121.312 22.196C120.37 22.196 119.562 21.8413 118.89 21.132C118.228 20.4133 117.896 19.536 117.896 18.5C117.896 17.464 118.228 16.5913 118.89 15.882C119.562 15.1633 120.37 14.804 121.312 14.804C122.292 14.804 123.048 15.1447 123.58 15.826V12.2ZM120.248 19.928C120.622 20.292 121.088 20.474 121.648 20.474C122.208 20.474 122.67 20.292 123.034 19.928C123.398 19.5547 123.58 19.0787 123.58 18.5C123.58 17.9213 123.398 17.45 123.034 17.086C122.67 16.7127 122.208 16.526 121.648 16.526C121.088 16.526 120.622 16.7127 120.248 17.086C119.884 17.45 119.702 17.9213 119.702 18.5C119.702 19.0787 119.884 19.5547 120.248 19.928ZM135.942 21.132C135.223 21.8413 134.346 22.196 133.31 22.196C132.274 22.196 131.397 21.8413 130.678 21.132C129.969 20.4133 129.614 19.536 129.614 18.5C129.614 17.464 129.969 16.5913 130.678 15.882C131.397 15.1633 132.274 14.804 133.31 14.804C134.346 14.804 135.223 15.1633 135.942 15.882C136.661 16.5913 137.02 17.464 137.02 18.5C137.02 19.536 136.661 20.4133 135.942 21.132ZM131.952 19.886C132.316 20.25 132.769 20.432 133.31 20.432C133.851 20.432 134.304 20.25 134.668 19.886C135.032 19.522 135.214 19.06 135.214 18.5C135.214 17.94 135.032 17.478 134.668 17.114C134.304 16.75 133.851 16.568 133.31 16.568C132.769 16.568 132.316 16.75 131.952 17.114C131.597 17.478 131.42 17.94 131.42 18.5C131.42 19.06 131.597 19.522 131.952 19.886ZM141.902 14.804C142.668 14.804 143.298 15.0607 143.792 15.574C144.296 16.0873 144.548 16.7967 144.548 17.702V22H142.742V17.926C142.742 17.4593 142.616 17.1047 142.364 16.862C142.112 16.61 141.776 16.484 141.356 16.484C140.89 16.484 140.516 16.6287 140.236 16.918C139.956 17.2073 139.816 17.6413 139.816 18.22V22H138.01V15H139.816V15.784C140.255 15.1307 140.95 14.804 141.902 14.804ZM72.528 40.736V41.492C72.528 42.892 72.08 44.026 71.184 44.894C70.288 45.762 69.1307 46.196 67.712 46.196C66.2 46.196 64.9447 45.706 63.946 44.726C62.9567 43.7367 62.462 42.5327 62.462 41.114C62.462 39.686 62.952 38.4773 63.932 37.488C64.9213 36.4987 66.144 36.004 67.6 36.004C68.5147 36.004 69.35 36.214 70.106 36.634C70.862 37.0447 71.45 37.5953 71.87 38.286L70.218 39.238C69.9847 38.8367 69.63 38.51 69.154 38.258C68.6873 38.006 68.1647 37.88 67.586 37.88C66.6527 37.88 65.8827 38.188 65.276 38.804C64.6787 39.4107 64.38 40.1807 64.38 41.114C64.38 42.038 64.6833 42.8033 65.29 43.41C65.906 44.0073 66.718 44.306 67.726 44.306C68.4727 44.306 69.0887 44.1427 69.574 43.816C70.0687 43.48 70.4047 43.0227 70.582 42.444H67.614V40.736H72.528ZM79.5022 45.132C78.7835 45.8413 77.9062 46.196 76.8702 46.196C75.8342 46.196 74.9569 45.8413 74.2382 45.132C73.5289 44.4133 73.1742 43.536 73.1742 42.5C73.1742 41.464 73.5289 40.5913 74.2382 39.882C74.9569 39.1633 75.8342 38.804 76.8702 38.804C77.9062 38.804 78.7835 39.1633 79.5022 39.882C80.2209 40.5913 80.5802 41.464 80.5802 42.5C80.5802 43.536 80.2209 44.4133 79.5022 45.132ZM75.5122 43.886C75.8762 44.25 76.3289 44.432 76.8702 44.432C77.4115 44.432 77.8642 44.25 78.2282 43.886C78.5922 43.522 78.7742 43.06 78.7742 42.5C78.7742 41.94 78.5922 41.478 78.2282 41.114C77.8642 40.75 77.4115 40.568 76.8702 40.568C76.3289 40.568 75.8762 40.75 75.5122 41.114C75.1575 41.478 74.9802 41.94 74.9802 42.5C74.9802 43.06 75.1575 43.522 75.5122 43.886ZM87.5347 45.132C86.816 45.8413 85.9387 46.196 84.9027 46.196C83.8667 46.196 82.9894 45.8413 82.2707 45.132C81.5614 44.4133 81.2067 43.536 81.2067 42.5C81.2067 41.464 81.5614 40.5913 82.2707 39.882C82.9894 39.1633 83.8667 38.804 84.9027 38.804C85.9387 38.804 86.816 39.1633 87.5347 39.882C88.2534 40.5913 88.6127 41.464 88.6127 42.5C88.6127 43.536 88.2534 44.4133 87.5347 45.132ZM83.5447 43.886C83.9087 44.25 84.3614 44.432 84.9027 44.432C85.444 44.432 85.8967 44.25 86.2607 43.886C86.6247 43.522 86.8067 43.06 86.8067 42.5C86.8067 41.94 86.6247 41.478 86.2607 41.114C85.8967 40.75 85.444 40.568 84.9027 40.568C84.3614 40.568 83.9087 40.75 83.5447 41.114C83.19 41.478 83.0127 41.94 83.0127 42.5C83.0127 43.06 83.19 43.522 83.5447 43.886ZM94.9652 39H96.7292V45.664C96.7292 46.7467 96.3699 47.5727 95.6512 48.142C94.9419 48.7113 94.0832 48.996 93.0752 48.996C92.3192 48.996 91.6519 48.8513 91.0732 48.562C90.5039 48.2727 90.0652 47.848 89.7572 47.288L91.2972 46.406C91.6519 47.0593 92.2632 47.386 93.1312 47.386C93.7005 47.386 94.1485 47.2367 94.4752 46.938C94.8019 46.6393 94.9652 46.2147 94.9652 45.664V44.908C94.4332 45.6173 93.6865 45.972 92.7252 45.972C91.7359 45.972 90.9052 45.6267 90.2332 44.936C89.5705 44.236 89.2392 43.3867 89.2392 42.388C89.2392 41.3987 89.5752 40.554 90.2472 39.854C90.9192 39.154 91.7452 38.804 92.7252 38.804C93.6865 38.804 94.4332 39.1587 94.9652 39.868V39ZM91.5912 43.774C91.9645 44.1287 92.4359 44.306 93.0052 44.306C93.5745 44.306 94.0412 44.1287 94.4052 43.774C94.7785 43.41 94.9652 42.948 94.9652 42.388C94.9652 41.8373 94.7785 41.3847 94.4052 41.03C94.0412 40.666 93.5745 40.484 93.0052 40.484C92.4359 40.484 91.9645 40.666 91.5912 41.03C91.2272 41.3847 91.0452 41.8373 91.0452 42.388C91.0452 42.948 91.2272 43.41 91.5912 43.774ZM98.0869 46V35.78H99.8929V46H98.0869ZM102.792 43.242C103.035 44.1193 103.693 44.558 104.766 44.558C105.457 44.558 105.979 44.3247 106.334 43.858L107.79 44.698C107.099 45.6967 106.082 46.196 104.738 46.196C103.581 46.196 102.652 45.846 101.952 45.146C101.252 44.446 100.902 43.564 100.902 42.5C100.902 41.4453 101.247 40.568 101.938 39.868C102.629 39.1587 103.515 38.804 104.598 38.804C105.625 38.804 106.469 39.1587 107.132 39.868C107.804 40.5773 108.14 41.4547 108.14 42.5C108.14 42.7333 108.117 42.9807 108.07 43.242H102.792ZM102.764 41.842H106.334C106.231 41.366 106.017 41.0113 105.69 40.778C105.373 40.5447 105.009 40.428 104.598 40.428C104.113 40.428 103.711 40.554 103.394 40.806C103.077 41.0487 102.867 41.394 102.764 41.842ZM116.079 36.2C117.021 36.2 117.815 36.5173 118.459 37.152C119.103 37.7867 119.425 38.566 119.425 39.49C119.425 40.414 119.103 41.1933 118.459 41.828C117.815 42.4627 117.021 42.78 116.079 42.78H114.357V46H112.425V36.2H116.079ZM116.079 40.974C116.489 40.974 116.83 40.834 117.101 40.554C117.371 40.2647 117.507 39.91 117.507 39.49C117.507 39.0607 117.371 38.706 117.101 38.426C116.83 38.146 116.489 38.006 116.079 38.006H114.357V40.974H116.079ZM120.318 46V35.78H122.124V46H120.318ZM128.817 39H130.623V46H128.817V45.174C128.276 45.8553 127.515 46.196 126.535 46.196C125.602 46.196 124.799 45.8413 124.127 45.132C123.465 44.4133 123.133 43.536 123.133 42.5C123.133 41.464 123.465 40.5913 124.127 39.882C124.799 39.1633 125.602 38.804 126.535 38.804C127.515 38.804 128.276 39.1447 128.817 39.826V39ZM125.485 43.928C125.849 44.292 126.311 44.474 126.871 44.474C127.431 44.474 127.893 44.292 128.257 43.928C128.631 43.5547 128.817 43.0787 128.817 42.5C128.817 41.9213 128.631 41.45 128.257 41.086C127.893 40.7127 127.431 40.526 126.871 40.526C126.311 40.526 125.849 40.7127 125.485 41.086C125.121 41.45 124.939 41.9213 124.939 42.5C124.939 43.0787 125.121 43.5547 125.485 43.928ZM136.545 39H138.477L135.929 46C135.565 47.008 135.08 47.736 134.473 48.184C133.876 48.6413 133.129 48.8467 132.233 48.8V47.12C132.718 47.1293 133.101 47.0267 133.381 46.812C133.67 46.5973 133.899 46.252 134.067 45.776L131.197 39H133.171L134.991 43.704L136.545 39ZM140.285 40.988C140.285 41.1747 140.406 41.3287 140.649 41.45C140.901 41.562 141.204 41.6647 141.559 41.758C141.914 41.842 142.268 41.954 142.623 42.094C142.978 42.2247 143.276 42.4487 143.519 42.766C143.771 43.0833 143.897 43.48 143.897 43.956C143.897 44.6747 143.626 45.23 143.085 45.622C142.553 46.0047 141.886 46.196 141.083 46.196C139.646 46.196 138.666 45.6407 138.143 44.53L139.711 43.648C139.916 44.2547 140.374 44.558 141.083 44.558C141.727 44.558 142.049 44.3573 142.049 43.956C142.049 43.7693 141.923 43.62 141.671 43.508C141.428 43.3867 141.13 43.2793 140.775 43.186C140.42 43.0927 140.066 42.976 139.711 42.836C139.356 42.696 139.053 42.4767 138.801 42.178C138.558 41.87 138.437 41.4873 138.437 41.03C138.437 40.3393 138.689 39.798 139.193 39.406C139.706 39.0047 140.341 38.804 141.097 38.804C141.666 38.804 142.184 38.9347 142.651 39.196C143.118 39.448 143.486 39.812 143.757 40.288L142.217 41.128C141.993 40.652 141.62 40.414 141.097 40.414C140.864 40.414 140.668 40.4653 140.509 40.568C140.36 40.6707 140.285 40.8107 140.285 40.988ZM148.577 40.736H146.995V43.648C146.995 43.8907 147.056 44.068 147.177 44.18C147.299 44.292 147.476 44.3573 147.709 44.376C147.943 44.3853 148.232 44.3807 148.577 44.362V46C147.336 46.14 146.459 46.0233 145.945 45.65C145.441 45.2767 145.189 44.6093 145.189 43.648V40.736H143.971V39H145.189V37.586L146.995 37.04V39H148.577V40.736ZM155.316 45.132C154.597 45.8413 153.72 46.196 152.684 46.196C151.648 46.196 150.771 45.8413 150.052 45.132C149.343 44.4133 148.988 43.536 148.988 42.5C148.988 41.464 149.343 40.5913 150.052 39.882C150.771 39.1633 151.648 38.804 152.684 38.804C153.72 38.804 154.597 39.1633 155.316 39.882C156.035 40.5913 156.394 41.464 156.394 42.5C156.394 43.536 156.035 44.4133 155.316 45.132ZM151.326 43.886C151.69 44.25 152.143 44.432 152.684 44.432C153.225 44.432 153.678 44.25 154.042 43.886C154.406 43.522 154.588 43.06 154.588 42.5C154.588 41.94 154.406 41.478 154.042 41.114C153.678 40.75 153.225 40.568 152.684 40.568C152.143 40.568 151.69 40.75 151.326 41.114C150.971 41.478 150.794 41.94 150.794 42.5C150.794 43.06 150.971 43.522 151.326 43.886ZM159.191 40.204C159.359 39.756 159.634 39.42 160.017 39.196C160.409 38.972 160.843 38.86 161.319 38.86V40.876C160.768 40.8107 160.273 40.9227 159.835 41.212C159.405 41.5013 159.191 41.982 159.191 42.654V46H157.385V39H159.191V40.204ZM163.361 43.242C163.604 44.1193 164.262 44.558 165.335 44.558C166.026 44.558 166.548 44.3247 166.903 43.858L168.359 44.698C167.668 45.6967 166.651 46.196 165.307 46.196C164.15 46.196 163.221 45.846 162.521 45.146C161.821 44.446 161.471 43.564 161.471 42.5C161.471 41.4453 161.816 40.568 162.507 39.868C163.198 39.1587 164.084 38.804 165.167 38.804C166.194 38.804 167.038 39.1587 167.701 39.868C168.373 40.5773 168.709 41.4547 168.709 42.5C168.709 42.7333 168.686 42.9807 168.639 43.242H163.361ZM163.333 41.842H166.903C166.8 41.366 166.586 41.0113 166.259 40.778C165.942 40.5447 165.578 40.428 165.167 40.428C164.682 40.428 164.28 40.554 163.963 40.806C163.646 41.0487 163.436 41.394 163.333 41.842Z" fill="white"/>
<g clip-path="url(#clip0)">
<path d="M37.9988 29.0939L42.0878 25.0047C34.6194 20.5817 23.5836 14.0928 22.96 14L22.91 14.0051L37.9988 29.0939Z" fill="#08B059"/>
<path d="M22.0051 14.9105L22 14.9601V45.0398L22.0048 45.0874L37.0936 29.999L22.0051 14.9105Z" fill="#1BB899"/>
<path d="M38.0008 30.906L22.9126 45.9945L22.96 45.9999C23.5865 45.9001 34.6203 39.4144 42.0878 34.9933L38.0008 30.906Z" fill="#F04F3E"/>
<path d="M48.8797 29.0399C48.8797 29.0399 46.5206 27.6326 43.2269 25.6799L38.906 30.0012L43.225 34.3202C46.5197 32.3672 48.8797 30.9599 48.8797 30.9599C49.3939 30.6898 49.8396 30.5301 49.8396 29.9999C49.8396 29.47 49.3328 29.2879 48.8797 29.0399Z" fill="#F99C1C"/>
</g>
<defs>
<clipPath id="clip0">
<rect width="27.8397" height="32" fill="white" transform="translate(22 14)"/>
</clipPath>
</defs>
</svg>
