<svg width="24" height="19" viewBox="0 0 24 19" fill="none" xmlns="http://www.w3.org/2000/svg">
<path d="M1.0469 2.95596L4.24191 0.473608C4.63192 0.170312 5.15392 0 5.70592 0C6.25792 0 6.77993 0.167979 7.16993 0.473608L10.6109 3.14494C11.0009 3.44824 11.2199 3.85652 11.2199 4.2858C11.2199 4.71741 11.0039 5.12103 10.6109 5.42665L7.92293 7.51939C8.53528 8.62895 9.41512 9.63709 10.5149 10.4894C11.6159 11.3502 12.903 12.0292 14.331 12.5098L17.019 10.417C17.409 10.1137 17.931 9.94342 18.483 9.94342C18.7552 9.94264 19.025 9.98413 19.2764 10.0655C19.5278 10.1468 19.7558 10.2663 19.947 10.417L23.391 13.0884C23.781 13.3917 24 13.7999 24 14.2292C24 14.6608 23.784 15.0644 23.391 15.3701L20.199 17.8524C19.533 18.3704 18.615 18.6667 17.673 18.6667C17.478 18.6667 17.289 18.655 17.097 18.6293C13.125 18.1207 9.18294 16.4759 5.99992 14.0029C2.81991 11.5252 0.707899 8.45961 0.0478954 5.36833C-0.141106 4.49111 0.236898 3.58822 1.0469 2.95596ZM2.17491 5.0907C2.75991 7.84135 4.66192 10.585 7.52693 12.8131C10.3919 15.0411 13.917 16.5203 17.454 16.9752C17.898 17.0335 18.354 16.9169 18.678 16.6672L21.813 14.2292L18.489 11.6419L14.895 14.4415L14.868 14.4625L14.22 14.2759C12.2552 13.7141 10.4709 12.8268 8.99096 11.6754C7.51098 10.5241 6.37062 9.13622 5.64892 7.60805L5.40892 7.10411L9.03293 4.28813L5.70892 1.70079L2.57391 4.13882C2.2499 4.39078 2.09991 4.74541 2.17491 5.0907Z" fill="#333CC1"/>
</svg>
